<svg id="visual" viewBox="0 0 960 540" width="960" height="540" xmlns="http://www.w3.org/2000/svg" xmlns:xlink="http://www.w3.org/1999/xlink" version="1.1"><rect x="0" y="0" width="960" height="540" fill="#151638"></rect><path d="M0 367L22.8 369.3C45.7 371.7 91.3 376.3 137 378.7C182.7 381 228.3 381 274 375C319.7 369 365.3 357 411.2 352.2C457 347.3 503 349.7 548.8 345.2C594.7 340.7 640.3 329.3 686 328.7C731.7 328 777.3 338 823 347.5C868.7 357 914.3 366 937.2 370.5L960 375L960 541L937.2 541C914.3 541 868.7 541 823 541C777.3 541 731.7 541 686 541C640.3 541 594.7 541 548.8 541C503 541 457 541 411.2 541C365.3 541 319.7 541 274 541C228.3 541 182.7 541 137 541C91.3 541 45.7 541 22.8 541L0 541Z" fill="#fb923c"></path><path d="M0 398L22.8 398C45.7 398 91.3 398 137 402.3C182.7 406.7 228.3 415.3 274 410.7C319.7 406 365.3 388 411.2 377.5C457 367 503 364 548.8 365.2C594.7 366.3 640.3 371.7 686 382.3C731.7 393 777.3 409 823 417.5C868.7 426 914.3 427 937.2 427.5L960 428L960 541L937.2 541C914.3 541 868.7 541 823 541C777.3 541 731.7 541 686 541C640.3 541 594.7 541 548.8 541C503 541 457 541 411.2 541C365.3 541 319.7 541 274 541C228.3 541 182.7 541 137 541C91.3 541 45.7 541 22.8 541L0 541Z" fill="#ee842f"></path><path d="M0 458L22.8 457.3C45.7 456.7 91.3 455.3 137 446.8C182.7 438.3 228.3 422.7 274 414.7C319.7 406.7 365.3 406.3 411.2 404.8C457 403.3 503 400.7 548.8 409.7C594.7 418.7 640.3 439.3 686 439.7C731.7 440 777.3 420 823 411.3C868.7 402.7 914.3 405.3 937.2 406.7L960 408L960 541L937.2 541C914.3 541 868.7 541 823 541C777.3 541 731.7 541 686 541C640.3 541 594.7 541 548.8 541C503 541 457 541 411.2 541C365.3 541 319.7 541 274 541C228.3 541 182.7 541 137 541C91.3 541 45.7 541 22.8 541L0 541Z" fill="#e17622"></path><path d="M0 472L22.8 468.8C45.7 465.7 91.3 459.3 137 461C182.7 462.7 228.3 472.3 274 476.8C319.7 481.3 365.3 480.7 411.2 472.5C457 464.3 503 448.7 548.8 449.8C594.7 451 640.3 469 686 476.3C731.7 483.7 777.3 480.3 823 479.2C868.7 478 914.3 479 937.2 479.5L960 480L960 541L937.2 541C914.3 541 868.7 541 823 541C777.3 541 731.7 541 686 541C640.3 541 594.7 541 548.8 541C503 541 457 541 411.2 541C365.3 541 319.7 541 274 541C228.3 541 182.7 541 137 541C91.3 541 45.7 541 22.8 541L0 541Z" fill="#d46813"></path><path d="M0 513L22.8 509C45.7 505 91.3 497 137 496.5C182.7 496 228.3 503 274 503.3C319.7 503.7 365.3 497.3 411.2 497.8C457 498.3 503 505.7 548.8 503C594.7 500.3 640.3 487.7 686 488.2C731.7 488.7 777.3 502.3 823 509C868.7 515.7 914.3 515.3 937.2 515.2L960 515L960 541L937.2 541C914.3 541 868.7 541 823 541C777.3 541 731.7 541 686 541C640.3 541 594.7 541 548.8 541C503 541 457 541 411.2 541C365.3 541 319.7 541 274 541C228.3 541 182.7 541 137 541C91.3 541 45.7 541 22.8 541L0 541Z" fill="#c75a00"></path></svg>